<svg xmlns="http://www.w3.org/2000/svg" width="22.779" height="24.2" viewBox="0 0 22.779 24.2">
  <defs>
    <style>
      .cls-1 {
        fill: #fa5e42;
        stroke: #fa5e42;
        stroke-width: 0.2px;
      }
    </style>
  </defs>
  <path id="Path_25" data-name="Path 25" class="cls-1" d="M22.07,2.836q-.148,0-.3.008a5.908,5.908,0,0,0-10.1,0q-.15-.008-.3-.008A6.008,6.008,0,0,0,9.908,14.654v8.527a.815.815,0,0,0,.811.819h12a.815.815,0,0,0,.811-.819V14.654A6.008,6.008,0,0,0,22.07,2.836Zm-.159,19.526H11.529V20.818H21.911v1.544Zm.708-9.2a.816.816,0,0,0-.708.812v5.476H20.356V14.345a.675.675,0,1,0-1.351,0v5.108H17.4V14.345a.675.675,0,1,0-1.351,0v5.108H14.435V14.345a.675.675,0,1,0-1.351,0v5.108H11.529v-5.4q0-.014,0-.028a.817.817,0,0,0-.708-.864,4.366,4.366,0,0,1,.546-8.691A4.3,4.3,0,0,1,12,4.521a.808.808,0,0,0,.844-.448,4.3,4.3,0,0,1,7.748,0,.808.808,0,0,0,.844.448,4.314,4.314,0,0,1,4.949,4.317A4.353,4.353,0,0,1,22.62,13.165Z" transform="translate(-5.331 0.1)"/>
</svg>
