<svg xmlns="http://www.w3.org/2000/svg" width="21.1" height="25.6" viewBox="0 0 21.1 25.6">
  <defs>
    <style>
      .cls-1 {
        fill: none;
        stroke: #fa5e42;
        stroke-width: 1.6px;
      }
    </style>
  </defs>
  <path id="Icon_awesome-utensils" data-name="Icon awesome-utensils" class="cls-1" d="M9.745.712A57.312,57.312,0,0,1,10.5,6.75a4.942,4.942,0,0,1-3.23,4.9l.6,11.161A1.128,1.128,0,0,1,6.75,24h-3a1.128,1.128,0,0,1-1.125-1.186l.6-11.161A4.941,4.941,0,0,1,0,6.75,57.142,57.142,0,0,1,.755.712C.9-.239,2.878-.253,3,.764V7.383c.061.159.708.15.75,0C3.816,6.2,4.12.858,4.125.736c.155-.975,2.1-.975,2.245,0,.009.127.309,5.461.375,6.647.042.15.694.159.75,0V.764C7.617-.248,9.6-.239,9.745.712ZM15.333,14.1l-.7,8.677A1.125,1.125,0,0,0,15.75,24h2.625A1.122,1.122,0,0,0,19.5,22.875V1.125A1.125,1.125,0,0,0,18.375,0C14.508,0,8,8.367,15.333,14.1Z" transform="translate(0.8 0.8)"/>
</svg>
